<?xml version="1.0" standalone="no"?><!DOCTYPE svg PUBLIC "-//W3C//DTD SVG 1.1//EN" "http://www.w3.org/Graphics/SVG/1.1/DTD/svg11.dtd"><svg t="1746780908586" class="icon" viewBox="0 0 1024 1024" version="1.1" xmlns="http://www.w3.org/2000/svg" p-id="5925" xmlns:xlink="http://www.w3.org/1999/xlink" width="16" height="16"><path d="M188.8 603.104a240.224 240.224 0 0 0-18.304 83.968 104.48 104.48 0 0 0 17.632 49.696 237.664 237.664 0 0 0 66.976 53.792l164.096 109.248a234.624 234.624 0 0 0 67.2 37.376 103.648 103.648 0 0 0 48 0 236.192 236.192 0 0 0 67.744-37.12L768 790.752a240.384 240.384 0 0 0 67.744-54.016 103.712 103.712 0 0 0 17.6-50.016 240.48 240.48 0 0 0-18.784-84.576L689.504 145.632a127.136 127.136 0 0 0-17.28-41.6 55.456 55.456 0 0 0-22.4-16.32 127.104 127.104 0 0 0-44.8-3.904h-188.864a125.824 125.824 0 0 0-44.8 4 54.816 54.816 0 0 0-22.4 16.384 126.08 126.08 0 0 0-17.12 41.6L188.8 603.136z m423.68-422.4a106.528 106.528 0 0 1 14.112 34.976l124.544 409.088a517.376 517.376 0 0 0-148.896-50.336l-80.928-273.92a10.592 10.592 0 0 0-16.416-5.408 10.336 10.336 0 0 0-3.808 5.408l-80 273.824a516.48 516.48 0 0 0-149.568 50.528l125.056-409.088a104.992 104.992 0 0 1 14.144-35.008 46.656 46.656 0 0 1 18.624-13.76 105.92 105.92 0 0 1 37.6-3.2h89.376a106.048 106.048 0 0 1 37.632 3.2 46.528 46.528 0 0 1 18.656 13.824zM516.064 673.92a177.632 177.632 0 0 0 108.8-29.536 89.6 89.6 0 0 1-6.624 69.824 126.016 126.016 0 0 1-49.504 47.392c-21.568 13.696-40.128 25.6-40.128 57.184a66.528 66.528 0 0 0 6.688 29.248 79.68 79.68 0 0 1-49.12-73.6v-1.952c0-21.856 0-48.768-30.784-48.768a32.896 32.896 0 0 0-12.512 2.464 32.672 32.672 0 0 0-17.664 17.632 32.96 32.96 0 0 0-2.528 12.512 120.608 120.608 0 0 1-31.616-84.608 134.592 134.592 0 0 1 5.6-39.936c12.8 24.224 61.44 42.24 119.392 42.24z" fill="#9575CD" p-id="5926"></path></svg>