<?xml version="1.0" standalone="no"?><!DOCTYPE svg PUBLIC "-//W3C//DTD SVG 1.1//EN" "http://www.w3.org/Graphics/SVG/1.1/DTD/svg11.dtd"><svg t="1747313683723" class="icon" viewBox="0 0 1024 1024" version="1.1" xmlns="http://www.w3.org/2000/svg" p-id="5161" xmlns:xlink="http://www.w3.org/1999/xlink" width="16" height="16"><path d="M926.944 384H302.144a64 64 0 0 0-60.736 43.776L128 768V320h768a64 64 0 0 0-64-64H483.968a64 64 0 0 1-40.96-14.848l-41.216-34.304A64 64 0 0 0 360.832 192H128a64 64 0 0 0-64 64v512a64 64 0 0 0 64 64h704l153.76-358.784A64 64 0 0 0 926.944 384" fill="#546E7A" p-id="5162"></path><path d="M719.936 895.936h221.664a49.92 49.92 0 0 0 36.064-19.744 41.6 41.6 0 0 0 6.016-20.192 40.32 40.32 0 0 0-6.016-19.776l-149.92-257.696a36.48 36.48 0 0 0-14.176-14.176 48 48 0 0 0-21.44-6.016 41.28 41.28 0 0 0-34.368 20.16l-37.824 65.728-76.032-127.552a41.6 41.6 0 0 0-13.76-15.904 48.64 48.64 0 0 0-39.904 0 48 48 0 0 0-16.32 15.904l-185.568 319.552a38.4 38.4 0 0 0-4.288 19.776 39.68 39.68 0 0 0 4.288 20.16 41.6 41.6 0 0 0 15.904 13.76 41.6 41.6 0 0 0 20.16 6.016h139.616a136.32 136.32 0 0 0 124.16-71.712l67.84-118.144 35.648-61.856 109.952 187.712h-146.048z m-156.8-64h-97.28l145.056-249.6 72.96 124.576-48.64 85.344a74.88 74.88 0 0 1-72.544 39.68z" fill="#00E676" p-id="5163"></path></svg>