<?xml version="1.0" standalone="no"?><!DOCTYPE svg PUBLIC "-//W3C//DTD SVG 1.1//EN" "http://www.w3.org/Graphics/SVG/1.1/DTD/svg11.dtd"><svg t="1740374584037" class="icon" viewBox="0 0 1024 1024" version="1.1" xmlns="http://www.w3.org/2000/svg" p-id="2270" xmlns:xlink="http://www.w3.org/1999/xlink" width="64" height="64"><path d="M426.752 85.333333c-10.666667 0-19.626667 7.68-21.333333 17.92l-15.786667 113.066667c-26.88 10.666667-49.92 25.173333-72.106667 41.813333l-106.24-42.666666a20.906667 20.906667 0 0 0-26.026666 9.386666l-85.333334 147.626667a20.992 20.992 0 0 0 5.12 27.306667L195.114667 469.333333c-1.706667 14.506667-2.986667 28.586667-2.986667 42.666667 0 14.08 1.28 27.733333 2.986667 41.386667l-90.026667 70.826666a20.992 20.992 0 0 0-5.12 27.306667l85.333333 147.626667c5.12 9.386667 16.64 12.8 26.026667 9.386666l106.24-43.093333c22.186667 17.066667 45.226667 31.573333 72.106667 42.24l15.786666 113.066667c1.706667 10.24 10.666667 17.92 21.333334 17.92h170.666666c10.666667 0 19.626667-7.68 21.333334-17.92l15.786666-113.066667c26.88-11.093333 49.92-25.173333 72.106667-42.24l106.24 43.093333c9.386667 3.413333 20.906667 0 26.026667-9.386666l85.333333-147.626667a21.461333 21.461333 0 0 0-5.077333-27.306667l-90.069334-70.826666c1.706667-13.653333 2.986667-27.306667 2.986667-41.386667 0-14.08-1.28-28.16-2.986667-42.666667l90.069334-69.546666c8.106667-6.4 10.24-17.92 5.12-27.306667l-85.333334-147.626667a20.906667 20.906667 0 0 0-26.026666-9.386666l-106.24 42.666666c-22.186667-16.64-45.312-31.146667-72.192-41.813333l-15.744-113.066667a21.546667 21.546667 0 0 0-21.333334-17.92h-170.666666z m217.728 256a101.12 100.992 90 0 1 87.082667 55.168l-53.162667 34.133334a46.506667 46.464 90 0 0-43.904-29.312 29.781333 29.738667 90 0 0-32.682667 26.752c-0.085333 0.896-0.042667 1.749333-0.042666 2.688 0 20.48 12.672 28.842667 41.898666 41.557333l17.066667 7.253333c58.026667 24.917333 90.752 50.346667 90.752 107.52 0 61.568-48.256 95.317333-113.152 95.317334a131.413333 131.242667 90 0 1-124.330667-70.058667l55.424-32.341333a74.496 74.410667 90 0 0 67.328 41.472c28.288 0 46.421333-14.165333 46.421334-33.706667 0-23.466667-18.602667-31.786667-49.749334-45.44l-17.066666-7.338667c-49.322667-21.034667-82.048-47.36-82.048-103.082666 0-51.328 38.997333-90.325333 100.010666-90.325334A101.12 100.992 90 0 1 644.48 341.333333z m-235.904 4.266667h68.352v233.557333c0 70.826667-41.472 103.082667-101.973333 103.082667a106.197333 106.026667 90 0 1-102.442667-62.506667l55.552-33.706666c10.752 19.029333 20.48 35.157333 43.946667 35.157333 22.442667 0 36.565333-8.832 36.565333-43.008V345.6z" fill="#FFCA2F" p-id="2271"></path></svg>