<?xml version="1.0" standalone="no"?><!DOCTYPE svg PUBLIC "-//W3C//DTD SVG 1.1//EN" "http://www.w3.org/Graphics/SVG/1.1/DTD/svg11.dtd"><svg t="1740374461710" class="icon" viewBox="0 0 1024 1024" version="1.1" xmlns="http://www.w3.org/2000/svg" p-id="6034" xmlns:xlink="http://www.w3.org/1999/xlink" width="64" height="64"><path d="M426.752 85.333333c-10.666667 0-19.626667 7.68-21.333333 17.92l-15.786667 113.066667c-26.88 10.666667-49.92 25.173333-72.106667 41.813333l-106.24-42.666666a20.906667 20.906667 0 0 0-26.026666 9.386666l-85.333334 147.626667a20.992 20.992 0 0 0 5.12 27.306667L195.114667 469.333333c-1.706667 14.506667-2.986667 28.586667-2.986667 42.666667 0 14.08 1.28 27.733333 2.986667 41.386667l-90.026667 70.826666a20.992 20.992 0 0 0-5.12 27.306667l85.333333 147.626667c5.12 9.386667 16.64 12.8 26.026667 9.386666l106.24-43.093333c22.186667 17.066667 45.226667 31.573333 72.106667 42.24l15.786666 113.066667c1.706667 10.24 10.666667 17.92 21.333334 17.92h170.666666c10.666667 0 19.626667-7.68 21.333334-17.92l15.786666-113.066667c26.88-11.093333 49.92-25.173333 72.106667-42.24l106.24 43.093333c9.386667 3.413333 20.906667 0 26.026667-9.386666l85.333333-147.626667a21.461333 21.461333 0 0 0-5.077333-27.306667l-90.069334-70.826666c1.706667-13.653333 2.986667-27.306667 2.986667-41.386667 0-14.08-1.28-28.16-2.986667-42.666667l90.069334-69.546666c8.106667-6.4 10.24-17.92 5.12-27.306667l-85.333334-147.626667a20.906667 20.906667 0 0 0-26.026666-9.386666l-106.24 42.666666c-22.186667-16.64-45.312-31.146667-72.192-41.813333l-15.744-113.066667a21.546667 21.546667 0 0 0-21.333334-17.92h-170.666666z m220.672 258.090667a184.746667 184.746667 0 0 1 36.821333 2.986667 90.837333 90.837333 0 0 1 45.653334 26.24 120.149333 120.149333 0 0 1 17.493333 23.509333c0.256 0.938667-31.488 22.186667-50.730667 34.090667-0.682667 0.469333-3.413333-2.56-6.570666-7.168a41.344 41.344 0 0 0-34.346667-20.48c-22.101333-1.536-36.352 10.026667-36.266667 29.397333a26.666667 26.666667 0 0 0 3.2 13.653333c4.864 10.069333 13.866667 16.128 42.24 28.416 52.224 22.613333 74.666667 37.290667 88.490667 58.368a105.898667 105.898667 0 0 1 8.533333 88.917334 97.792 97.792 0 0 1-80.682666 57.813333 223.744 223.744 0 0 1-55.594667-0.597333 134.058667 134.058667 0 0 1-74.24-38.656 128.853333 128.853333 0 0 1-18.986667-28.16 54.485333 54.485333 0 0 1 6.656-4.266667l27.093334-15.658667 21.077333-12.245333 4.309333 6.4a97.962667 97.962667 0 0 0 27.733334 26.496 67.754667 67.754667 0 0 0 71.04-3.584 31.701333 31.701333 0 0 0 4.053333-40.533333c-5.632-8.234667-17.237333-14.933333-50.133333-29.184a180.650667 180.650667 0 0 1-68.778667-42.197334 96.213333 96.213333 0 0 1-19.968-36.48 146.090667 146.090667 0 0 1-1.28-46.592 88.917333 88.917333 0 0 1 74.752-69.248 184.746667 184.746667 0 0 1 18.432-1.28z m-262.357333 3.328l127.530666 0.426667 0.426667 29.653333 0.213333 29.866667H418.176v269.866666H351.146667V406.741333H256.042667v-29.312a287.146667 287.146667 0 0 1 0.853333-30.08c0.341333-0.469333 58.069333-0.725333 128.128-0.597333z" fill="#0288D1" p-id="6035"></path></svg>