<?xml version="1.0" standalone="no"?>
<!DOCTYPE svg PUBLIC "-//W3C//DTD SVG 1.1//EN" "http://www.w3.org/Graphics/SVG/1.1/DTD/svg11.dtd"><svg t="1739347200909"
  class="icon" viewBox="0 -40 1024 1024" version="1.1" xmlns="http://www.w3.org/2000/svg" p-id="2591"
  xmlns:xlink="http://www.w3.org/1999/xlink" width="24" height="24">
  <path
    d="M204.8 122.88h614.4a81.92 81.92 0 0 1 81.92 81.92v614.4a81.92 81.92 0 0 1-81.92 81.92H204.8a81.92 81.92 0 0 1-81.92-81.92V204.8a81.92 81.92 0 0 1 81.92-81.92z m20.48 143.36a40.96 40.96 0 1 0 0-81.92 40.96 40.96 0 0 0 0 81.92z m0 143.36a40.96 40.96 0 1 0 0-81.92 40.96 40.96 0 0 0 0 81.92z m0 143.36a40.96 40.96 0 1 0 0-81.92 40.96 40.96 0 0 0 0 81.92z m0 143.36a40.96 40.96 0 1 0 0-81.92 40.96 40.96 0 0 0 0 81.92z m0 143.36a40.96 40.96 0 1 0 0-81.92 40.96 40.96 0 0 0 0 81.92z m573.44-573.44a40.96 40.96 0 1 0 0-81.92 40.96 40.96 0 0 0 0 81.92z m0 143.36a40.96 40.96 0 1 0 0-81.92 40.96 40.96 0 0 0 0 81.92z m0 143.36a40.96 40.96 0 1 0 0-81.92 40.96 40.96 0 0 0 0 81.92z m0 143.36a40.96 40.96 0 1 0 0-81.92 40.96 40.96 0 0 0 0 81.92z m0 143.36a40.96 40.96 0 1 0 0-81.92 40.96 40.96 0 0 0 0 81.92zM409.6 631.52128c0 22.03648 16.09728 30.28992 35.98336 18.39104l194.8672-116.40832c19.8656-11.8784 19.88608-31.1296 0-43.008l-194.8672-116.40832c-19.8656-11.8784-35.98336-3.6864-35.98336 18.39104v239.04256z"
    p-id="2592" fill="#FF9800"></path>
</svg>