<?xml version="1.0" standalone="no"?>
<!DOCTYPE svg PUBLIC "-//W3C//DTD SVG 1.1//EN" "http://www.w3.org/Graphics/SVG/1.1/DTD/svg11.dtd"><svg t="1739340663315"
  class="icon" viewBox="128 0 832 832" version="1.1" xmlns="http://www.w3.org/2000/svg" p-id="5975"
  xmlns:xlink="http://www.w3.org/1999/xlink" width="24" height="24">
  <path
    d="M338.218667 769.557333H441.6c73.834667-0.469333 131.989333-28.608 176.32-84.48 21.674667-27.690667 43.370667-68.309333 64.149333-121.834666h119.552v-102.933334h-78.464c16.149333-35.541333 33.216-60.928 50.773334-76.16 20.757333-18.005333 47.061333-26.773333 79.381333-26.773333v-102.933333c-73.386667 0-132.928 28.16-177.706667 84.010666-15.701333 19.84-30.464 44.309333-43.84 73.834667-8.32 17.088-19.413333 44.8-33.706666 81.237333-24 63.253333-44.309333 106.176-61.376 127.402667-23.082667 29.994667-54.933333 45.226667-95.573334 45.696h-102.912c-21.696 0-38.314667-5.546667-49.386666-16.618667-9.685333-9.216-14.784-20.778667-14.784-35.072 0-14.293333 5.098667-25.856 14.784-35.093333 11.093333-11.072 27.690667-16.597333 49.386666-16.597333h102.933334v-102.933334h-102.933334c-50.773333 0-91.861333 16.149333-123.242666 47.530667C185.898667 536.917333 170.666667 572.48 170.666667 614.933333c0 42.453333 15.232 77.994667 44.309333 107.093334 31.381333 31.829333 72.469333 47.530667 123.242667 47.530666z"
    fill="#0277BD" p-id="5976"></path>
</svg>