<?xml version="1.0" standalone="no"?><!DOCTYPE svg PUBLIC "-//W3C//DTD SVG 1.1//EN" "http://www.w3.org/Graphics/SVG/1.1/DTD/svg11.dtd"><svg t="1740374643062" class="icon" viewBox="0 0 1024 1024" version="1.1" xmlns="http://www.w3.org/2000/svg" p-id="4982" xmlns:xlink="http://www.w3.org/1999/xlink" width="64" height="64"><path d="M426.666667 170.666667H170.666667c-47.36 0-85.333333 37.973333-85.333334 85.333333v512c0 46.805333 38.528 85.333333 85.333334 85.333333h682.666666c46.805333 0 85.333333-38.528 85.333334-85.333333V341.333333a85.333333 85.333333 0 0 0-85.333334-85.333333h-341.333333l-85.333333-85.333333z" fill="#1976D2" p-id="4983"></path><path d="M693.717333 770.218667h-75.733333l-142.421333-145.066667 142.421333-145.066667h75.733333l37.973334-65.578666 197.034666-50.474667 54.229334 195.541333-37.973334 65.578667 37.973334 65.578667-54.229334 195.541333-196.992-50.474667-38.016-65.578666m4.053334-7.253334l148.821333 40.021334-85.845333-148.821334h-171.776l108.8 108.8m199.338666 11.008l40.021334-148.821333-40.021334-148.821333-86.186666 148.821333 86.186666 148.821333m-199.338666-286.634666l-108.8 108.8h171.776l85.888-148.821334z" fill="#BBDEFB" p-id="4984"></path></svg>