<?xml version="1.0" standalone="no"?>
<!DOCTYPE svg PUBLIC "-//W3C//DTD SVG 1.1//EN" "http://www.w3.org/Graphics/SVG/1.1/DTD/svg11.dtd"><svg t="1739339229453"
  class="icon" viewBox="64 64 896 896" version="1.1" xmlns="http://www.w3.org/2000/svg" p-id="3233" width="64"
  height="64" data-spm-anchor-id="a313x.manage_type_myprojects.0.i23.476e3a81XWogmC"
  xmlns:xlink="http://www.w3.org/1999/xlink">
  <path
    d="M496.479003 532.902052C353.316419 238.204194 683.315272 357.924879 601.967546 64.618717 635.734604 247.413949 173.734368 279.646048 496.479003 532.902052z"
    fill="#F44336" p-id="3234"></path>
  <path
    d="M684.627151 250.483868C370.199948 342.576309 578.94418 494.529093 566.664505 558.994314 703.26872 488.390279 437.734064 344.111269 684.627151 250.483868z"
    fill="#F44336" p-id="3235"></path>
  <path
    d="M727.827045 578.947761c-81.011059 71.402213-560.232514 81.34875-353.022219-30.697139C-27.335067 652.621714 660.292929 783.087115 727.827045 578.947761z"
    fill="#F44336" p-id="3236"></path>
  <path
    d="M397.535527 727.039611c-110.220311 94.420463 225.789443 135.783523 273.500071 0C574.339302 766.950599 417.780617 792.296871 397.535527 727.039611z"
    fill="#F44336" p-id="3237"></path>
  <path
    d="M248.488933 803.552216c-481.497289 153.534815 543.803333 240.464677 659.337673 24.557302C777.528004 899.512754 73.96713 957.087031 248.488933 803.552216z"
    fill="#F44336" p-id="3238"></path>
  <path
    d="M752.385371 715.551976c207.209272-76.743872 70.604034-259.394818-24.558325-156.557662C822.989405 548.250622 844.477812 628.064412 752.385371 715.551976z"
    fill="#F44336" p-id="3239"></path>
</svg>