<?xml version="1.0" standalone="no"?><!DOCTYPE svg PUBLIC "-//W3C//DTD SVG 1.1//EN" "http://www.w3.org/Graphics/SVG/1.1/DTD/svg11.dtd"><svg t="1740374970643" class="icon" viewBox="0 0 1024 1024" version="1.1" xmlns="http://www.w3.org/2000/svg" p-id="12527" xmlns:xlink="http://www.w3.org/1999/xlink" width="64" height="64"><path d="M497.362 866.986v40.104h-105.48l-34.99-121.506c-24.356-6.212-48.514-15.494-72.08-28.158l-118.828 69.418-70.714-70.716 64.244-120.026a313.93 313.93 0 0 1-29.144-69.474L0 531.214v-100.18l129.674-38.088c6.656-24.174 16.18-47.67 28.6-69.896L92.322 205.14 163.04 134.424l118.856 66.764c22.674-12.48 45.928-21.834 69.384-28.286l36.674-133.748h100.18l37.74 136.552a323.932 323.932 0 0 1 63.356 27.08l124.8-71.31 70.716 70.716-70.95 125.986a308.678 308.678 0 0 1 23.484 55.506c-33.298 0.508-84.074 4.604-123.216 22.448-41.82-103.3-170.112-155.824-276.006-94.776-128.466 74.062-128.466 260.224 0 334.286 27.404 15.8 56.31 23.98 84.828 25.654-4.84 121.186 11.736 158.65 74.48 195.69z m174.378-175.206c-44.512 0-82.016 38.232-82.016 81.556v59.98H544.58c-38.146 0-60.44-27.69-69.758-66.562-12.586-52.21-12.052-83.41 0-133.416 10.458-43.64 43.86-66.56 82.006-66.56h180.54V544.2h-131.26v-51.638c0-37.88 10.092-50.92 65.64-60.724 42.882-7.18 86.596-7.102 131.116 0 35.63 5.93 65.642 32.652 65.642 68.232v124.99c0 36.67-29.14 66.708-65.64 66.708l-131.128 0.012z m34.898-203.802c0-23.38-25.102-38.07-45.074-26.38-19.972 11.688-19.972 41.072 0 52.76 19.972 11.69 45.074-3 45.074-26.38z m308.12 290.012c-10.456 43.64-43.858 66.56-82.004 66.56h-180.54v20.432h131.26v53.784c0 37.88-10.092 50.922-65.64 60.724-42.882 7.18-86.596 7.102-131.116 0-35.63-5.93-65.642-32.65-65.642-68.232v-124.99c0-36.67 29.14-66.708 65.64-66.708l131.128-0.012c44.512 0 82.016-38.23 82.016-81.556v-59.98h45.142c38.146 0 60.44 27.692 69.756 66.564 12.588 52.208 12.054 83.408 0 133.414z m-231.812 145.36c0 23.38 25.1 38.072 45.074 26.38 19.972-11.688 19.972-41.072 0-52.76-19.972-11.69-45.074 3-45.074 26.38z" fill="#FFD54F" p-id="12528"></path></svg>