<?xml version="1.0" standalone="no"?>
<!DOCTYPE svg PUBLIC "-//W3C//DTD SVG 1.1//EN" "http://www.w3.org/Graphics/SVG/1.1/DTD/svg11.dtd"><svg t="1743660725322"
  class="icon" viewBox="0 -100 1120 1120" version="1.1" xmlns="http://www.w3.org/2000/svg" p-id="4998" width="17.828125"
  height="16" xmlns:xlink="http://www.w3.org/1999/xlink">
  <path
    d="M1109.333333 452.700565l-218.39548-378.214689c-18.80226-32.542373-65.80791-60.022599-103.412429-60.022599H350.734463c-37.60452 0-84.610169 26.757062-103.412429 60.022599L28.926554 452.700565c-18.80226 32.542373-18.80226 86.779661 0 119.322034l218.39548 378.214689c18.80226 32.542373 65.80791 60.022599 103.412429 60.022599h436.790961c37.60452 0 84.610169-26.757062 103.412429-60.022599l218.39548-378.214689c19.525424-33.265537 19.525424-86.779661 0-119.322034z"
    fill="#6DB33F" p-id="4999"></path>
  <path
    d="M265.40113 833.084746m-44.112994 0a44.112994 44.112994 0 1 0 88.225988 0 44.112994 44.112994 0 1 0-88.225988 0Z"
    fill="#FFFFFF" p-id="5000"></path>
  <path
    d="M1005.19774 704.361582C877.19774 875.028249 603.841808 817.175141 428.836158 825.853107c0 0-31.096045 1.446328-62.19209 6.508475 0 0 11.570621-5.062147 26.757062-10.124294 122.937853-42.666667 180.79096-51.344633 256-89.672316 140.293785-71.59322 279.864407-228.519774 308.79096-391.231639-53.514124 156.20339-216.225989 291.435028-363.751412 345.672317-101.242938 37.60452-284.20339 73.762712-284.20339 73.762712l-7.231638-3.61582C177.175141 697.129944 173.559322 426.666667 399.909605 339.887006 498.983051 301.559322 594.440678 322.531073 701.468927 297.220339c114.259887-27.480226 246.59887-112.813559 300.836158-224.903955 60.022599 179.344633 132.338983 459.20904 2.892655 632.045198z"
    fill="#FFFFFF" p-id="5001"></path>
  <path
    d="M1002.305085 72.316384c60.022599 179.344633 133.062147 459.20904 2.892655 632.045198-80.271186 107.028249-217.672316 124.384181-352.180791 124.384181-63.638418 0-126.553672-3.615819-182.237288-3.615819-14.463277 0-28.20339 0-41.220339 0.723163 0 0-31.096045 1.446328-62.19209 6.508475 0 0 11.570621-5.062147 26.757062-10.124294 122.937853-42.666667 180.79096-51.344633 256-89.672316 140.293785-71.59322 279.864407-228.519774 308.79096-391.231639-53.514124 156.20339-216.225989 291.435028-363.751412 345.672317-101.242938 37.60452-284.20339 73.762712-284.20339 73.762712l-7.231638-3.61582C177.175141 697.129944 173.559322 426.666667 399.909605 339.887006 498.983051 301.559322 594.440678 322.531073 701.468927 297.220339c114.259887-26.757062 246.59887-112.813559 300.836158-224.903955m3.615819-57.129943l-23.141243 47.728813c-54.237288 112.813559-186.576271 189.468927-286.372881 213.333334-44.836158 10.847458-88.949153 13.016949-130.892656 15.18644-55.683616 2.892655-113.536723 5.785311-172.836158 28.20339C253.107345 373.152542 199.59322 490.305085 195.977401 582.146893c-3.615819 87.502825 33.988701 163.435028 95.457627 194.531073 3.615819 2.169492 11.570621 6.508475 18.079096 6.508475h9.40113l1.446328-1.446328c41.943503-8.677966 191.638418-40.497175 281.310734-73.039548 62.19209-23.141243 132.338983-62.19209 195.977402-114.259887-47.00565 49.898305-101.966102 91.841808-157.649718 120.045198-45.559322 23.141243-84.610169 35.435028-138.847458 52.067796-31.819209 9.40113-68.700565 20.971751-113.536723 36.158192-15.909605 5.062147-27.480226 10.847458-28.20339 10.847458l-15.909604 32.542373 28.20339 8.677966c29.649718-5.062147 59.299435-6.508475 60.022599-6.508475 12.293785-0.723164 25.310734-0.723164 39.774011-0.723163 26.757062 0 54.960452 0.723164 84.610169 2.169491 31.819209 0.723164 64.361582 2.169492 97.627119 2.169492 133.785311 0 282.033898-15.909605 369.536723-133.062147 101.966102-135.954802 102.689266-349.288136 0.723164-652.293786l-18.079096-51.344632z"
    fill="#6DB33F" p-id="5002"></path>
</svg>