<?xml version="1.0" standalone="no"?><!DOCTYPE svg PUBLIC "-//W3C//DTD SVG 1.1//EN" "http://www.w3.org/Graphics/SVG/1.1/DTD/svg11.dtd"><svg t="1739341776336" class="icon" viewBox="0 0 1024 1024" version="1.1" xmlns="http://www.w3.org/2000/svg" p-id="6327" xmlns:xlink="http://www.w3.org/1999/xlink" width="24" height="24"><path d="M512 960.533333l-448-448 448-448 447.978667 448z" fill="#008200" p-id="6328"></path><path d="M638.933333 669.674667c-10.773333 0.106667-21.312 1.024-31.338666 2.261333-7.850667-0.576-10.901333 12.138667-8.042667 20.970667l8.32 16.661333c1.066667 13.418667 7.808 27.541333-58.837333 148.565333-4.885333 10.752-3.2 19.2 2.410666 27.861334 6.208 4.8 13.482667 9.024 21.141334 8.938666l58.837333-0.576c6.826667-0.149333 18.922667-15.722667 13.653333-26.752l-12.48-15.445333c-5.674667-9.834667 6.421333-38.890667 20.8-68.352 20.544-26.986667 42.922667-32.597333 58.154667-32.896-1.429333 12.245333-14.848 53.866667-44.245333 107.221333-4.949333 10.858667-2.773333 20.672 3.456 28.629334 5.44 4.736 11.861333 8.256 19.477333 8.170666l59.434667-0.576c6.826667-0.149333 18.922667-15.722667 13.653333-26.752l-12.48-15.445333c-5.76-9.984 6.741333-39.637333 21.418667-69.546667 18.901333-27.093333 40.362667-30.421333 54.933333-30.442666-3.136 30.186667-13.674667 55.189333-41.621333 105.941333-4.949333 10.858667-3.413333 20.053333 3.456 27.989333 5.44 4.736 11.861333 8.896 19.477333 8.810667l58.837333-0.576c6.826667-0.149333 19.541333-15.722667 14.272-26.752l-12.48-15.445333c-11.754667-20.373333 30.4-75.242667 44.181334-112.405334 6.378667-20.245333 3.669333-31.552-5.418667-43.797333-10.944-12.288-24.682667-20.48-33.472-23.253333l-44.778667-0.661334c-8.064 1.834667-9.749333 6.464-11.968 14.933334 0 0-26.730667-1.216-30.165333-1.621334-0.682667-4.48-3.477333-11.818667-7.637333-12.224l-46.912-0.704c-15.125333-0.32-13.632 5.141333-15.573334 14.442667 0 0-40.085333 1.685333-41.450666 0.021333-1.642667-0.298667-3.008-13.056-4.352-14.741333a178.154667 178.154667 0 0 0-32.661334-2.453333z" fill="#DCDDDD" p-id="6329"></path><path d="M618.666667 149.333333v64a21.333333 21.333333 0 0 0 21.333333 21.333334h18.986667L384 509.653333V234.666667h42.666667a21.333333 21.333333 0 0 0 21.333333-21.333334V149.333333a21.333333 21.333333 0 0 0-21.333333-21.333333H149.333333a21.333333 21.333333 0 0 0-21.333333 21.333333v64a21.333333 21.333333 0 0 0 21.333333 21.333334h42.666667v618.666666a21.333333 21.333333 0 0 0 21.333333 21.333334h66.944a21.333333 21.333333 0 0 0 14.954667-6.122667L384 781.184 919.850667 234.666667H938.666667a21.333333 21.333333 0 0 0 21.333333-21.333334V149.333333a21.333333 21.333333 0 0 0-21.333333-21.333333H640a21.333333 21.333333 0 0 0-21.333333 21.333333z" fill="#808080" p-id="6330"></path><path d="M213.333333 213.333333H149.333333V149.333333h277.333334v64h-64v347.818667L710.485333 213.333333H640V149.333333h298.666667v64h-27.797334L368.768 766.229333 280.277333 853.333333H213.333333z" fill="#DCDDDD" p-id="6331"></path><path d="M548.8 677.376l-31.68 0.874667c-20.821333-0.426667-24.938667 6.848-23.936 25.664 0.426667 14.122667 10.688 24.810667-59.050667 151.424-12.586667 25.493333 9.173333 36.202667 23.189334 36.778666l59.008-0.469333c6.826667-0.149333 19.093333-16.064 13.845333-27.114667l-12.48-15.530666c-11.754667-20.373333 46.528-119.274667 54.741333-141.461334 3.413333-9.685333 2.24-15.253333-0.490666-20.672-4.629333-6.848-9.770667-10.090667-23.146667-9.493333zM548.757333 574.357333c-18.176 0-38.912 21.738667-38.912 41.237334 0 19.52 1.258667 23.445333 8.469334 36.821333 6.570667 13.354667 17.28 15.957333 35.456 15.957333 18.176 0 41.472-24.298667 41.472-43.797333-2.56-18.858667-5.994667-26.176-14.208-35.456-8.725333-9.813333-14.101333-14.762667-32.277334-14.762667z" fill="#DCDDDD" p-id="6332"></path></svg>